<?xml version="1.0" encoding="UTF-8" standalone="no"?>
<!-- Created with Inkscape (http://www.inkscape.org/) -->

<svg
   version="1.1"
   id="svg2"
   xml:space="preserve"
   width="954.88"
   height="705.01331"
   viewBox="0 0 954.88 705.01331"
   sodipodi:docname="phineas-and-ferb.eps"
   xmlns:inkscape="http://www.inkscape.org/namespaces/inkscape"
   xmlns:sodipodi="http://sodipodi.sourceforge.net/DTD/sodipodi-0.dtd"
   xmlns="http://www.w3.org/2000/svg"
   xmlns:svg="http://www.w3.org/2000/svg"><defs
     id="defs6"><linearGradient
       x1="0"
       y1="0"
       x2="1"
       y2="0"
       gradientUnits="userSpaceOnUse"
       gradientTransform="matrix(-3140,-4760,-4760,3140,5150.49,4988.94)"
       spreadMethod="pad"
       id="linearGradient24"><stop
         style="stop-opacity:1;stop-color:#f17f31"
         offset="0"
         id="stop12" /><stop
         style="stop-opacity:1;stop-color:#f06731"
         offset="0.190184"
         id="stop14" /><stop
         style="stop-opacity:1;stop-color:#f9c308"
         offset="0.539877"
         id="stop16" /><stop
         style="stop-opacity:1;stop-color:#f3822f"
         offset="0.723926"
         id="stop18" /><stop
         style="stop-opacity:1;stop-color:#ee5233"
         offset="0.88764"
         id="stop20" /><stop
         style="stop-opacity:1;stop-color:#ea2c35"
         offset="1"
         id="stop22" /></linearGradient><radialGradient
       fx="0"
       fy="0"
       cx="0"
       cy="0"
       r="1"
       gradientUnits="userSpaceOnUse"
       gradientTransform="matrix(2877.52,-0.577268,0.577268,-2854.75,3578.47,2623.8)"
       spreadMethod="pad"
       id="radialGradient36"><stop
         style="stop-opacity:1;stop-color:#fde071"
         offset="0"
         id="stop28" /><stop
         style="stop-opacity:1;stop-color:#fde071"
         offset="0"
         id="stop30" /><stop
         style="stop-opacity:1;stop-color:#fcca07"
         offset="0.779141"
         id="stop32" /><stop
         style="stop-opacity:1;stop-color:#ddac12"
         offset="1"
         id="stop34" /></radialGradient></defs><sodipodi:namedview
     id="namedview4"
     pagecolor="#ffffff"
     bordercolor="#666666"
     borderopacity="1.0"
     inkscape:pageshadow="2"
     inkscape:pageopacity="0.0"
     inkscape:pagecheckerboard="0" /><g
     id="g8"
     inkscape:groupmode="layer"
     inkscape:label="ink_ext_XXXXXX"
     transform="matrix(1.3333333,0,0,-1.3333333,0,705.01333)"><g
       id="g10"
       transform="scale(0.1)"><path
         d="M 7033.03,2924.22 C 7151.74,1472.46 5712.5,170.012 3818.41,15.1289 1924.31,-139.73 292.629,911.609 173.922,2363.37 55.2148,3815.14 1494.45,5117.59 3388.54,5272.46 c 1894.1,154.87 3525.8,-896.48 3644.49,-2348.24"
         style="fill:url(#linearGradient24);fill-opacity:1;fill-rule:evenodd;stroke:none"
         id="path26" /><path
         d="M 6808.15,2541.97 C 6773.82,1186.69 5300,124.609 3516.31,169.789 1732.59,214.988 314.465,1350.32 348.801,2705.6 383.129,4060.92 1856.94,5122.98 3640.64,5077.8 5424.36,5032.61 6842.5,3897.28 6808.15,2541.97"
         style="fill:url(#radialGradient36);fill-opacity:1;fill-rule:evenodd;stroke:none"
         id="path38" /><path
         d="m 3608.9,4480.37 c 13.42,-149.65 -8.53,-304.88 -9.59,-455.97 -119.38,-23.02 -266.76,-18.02 -388.77,-38.39 -11.29,12.7 -29.97,18.02 -43.21,28.79 -18.28,151.31 -39.19,299.98 -57.58,451.17 28.92,21.52 67.11,12.78 105.58,14.4 100.19,4.22 214.29,17.22 307.18,19.2 34.26,0.72 65.25,8.81 86.39,-19.2"
         style="fill:#721d25;fill-opacity:1;fill-rule:evenodd;stroke:none"
         id="path40" /><path
         d="m 3618.9,3914.01 c -2.44,-192.92 -42.26,-962.35 -47.99,-1127.9 -67.09,-9.71 -130.23,-23.37 -206.39,-24 -1.09,16.5 -14.28,20.91 -28.8,24 -33.35,293.52 -88.76,608.42 -124.78,907.12 -9.55,79.17 -25.71,156.33 -24.01,235.19 95,12.16 230.48,0.11 331.19,4.79 40.89,1.9 78.73,11.97 100.78,-19.2"
         style="fill:#721d25;fill-opacity:1;fill-rule:evenodd;stroke:none"
         id="path42" /><path
         d="m 5506.64,736.66 c 18.27,2.442 208,46.602 226.66,66.66 -24.76,27.719 -96.7,67.641 -127.79,88.442 -32.68,21.828 -67.37,41.738 -100.43,62.066 -1.06,3.723 -4.02,5.551 -9.57,4.781 -9.47,-60.578 5.82,-173.39 11.13,-221.949 z m -1025.1,694.71 c -0.27,-6.1 -6.13,-6.62 -4.78,-14.32 20.99,-61.81 59.49,-207.95 84.88,-265.39 0.88,-18.21 197.95,229.76 220,280 -86.89,-0.64 -228.84,0.59 -300.1,-0.29 z m 995.1,141.96 c 46.66,10 107.74,48.21 153.33,60 -60,33.33 -153.49,83.33 -156.67,83.33 4.62,-23.24 3.34,-100 3.34,-143.33 z m 119.31,1782.54 c 73.97,7.33 186.59,6.9 267.35,7.45 -6.99,88.53 -31,200.15 -36.66,290 0,10 -186.67,-226.66 -230.69,-297.45 z m -4194.57,143.26 c 308.59,114.19 573.12,378.87 591.92,420.86 -278.54,21.14 -568.77,38.42 -859.76,47.14 45.02,-79.58 247.35,-455.72 267.84,-468 z m 3390.26,322.53 c 44.61,11.16 130.8,23.44 155,55 -30,43.33 -65.6,95.46 -100,120 -13.69,-43.63 -47.19,-125.51 -55,-175 z m 2085,340 c -4.58,-108.45 -7.64,-209.3 -35,-295 -30.18,-4.66 -220,80 -305,40 -115,-145 286.5,-182.53 290.56,-183.83 254.44,-81.17 332.91,-230.2 334.44,-356.17 0.57,-47.33 -34.63,-92.55 -63.89,-134.95 -131.11,-190.05 -570.95,-202.02 -616.97,-200.56 -42.45,1.32 -99.55,-15.07 -114.79,4.77 -54.35,70.74 -104.47,266.9 -124.35,345.74 430,-40 499.34,35.91 490,50 -5,90 -290,-15 -525,260 -22.69,-247.97 -33.62,-515.73 -65,-755 -115,-10 -210,5 -250,30 -1.35,16.17 -17.83,59.66 -15,80 -123.26,-43.11 -258.64,-132.57 -428.96,-106.25 -13.26,2.05 -44.37,11.62 -62.17,19.09 -116.6,49.02 -178.89,201.43 -163.87,347.16 -116.7,-93.6 -220,-235 -415,-210 -288.71,37.01 -274.75,239.01 -305,270 -20.12,-49.97 -33.57,-161.3 -72.71,-192.26 -94,11.22 -202.28,8.16 -301.31,14.33 -5.33,18.57 -30.17,17.64 -33.5,38.2 82.52,234.73 119.49,515.24 62.52,609.73 -43.5,12.46 -112.56,1.75 -134.26,-22.35 -24.6,-151.07 -50.08,-328.53 -76.52,-472.76 -5.88,-32.06 -5.84,-68.52 -23.92,-95.52 -88.39,21.58 -224.13,-4.11 -286.97,42.99 36.67,347.64 43.33,641.06 57.39,964.63 49.75,17.5 123.82,26.45 172.19,33.43 29.3,4.24 62.15,0.41 90.87,4.77 49.86,7.59 107.08,34.85 133.93,-14.31 -10.95,-51.17 -29.21,-95.01 -23.92,-162.37 96.88,23.2 199.24,25.87 267.83,-4.78 41.72,-18.63 75.84,-43.77 105.24,-71.63 28.73,-27.22 73.08,-68.42 98.14,-92.1 51.89,119.56 81.49,273.64 193.6,326.09 9.45,4.42 31.21,12.38 43.06,14.33 86.41,14.2 143.67,-17.24 196.09,-52.53 68.05,-45.81 100.24,-81.88 148.27,-138.48 81.89,-96.54 174.26,-195.48 157.84,-362.94 -162.63,-63.67 -350.62,-102.01 -516.55,-162.36 19.8,-49.68 26.36,-104.33 71.73,-119.39 44.32,-14.71 95.72,15 119.57,28.65 80.94,46.31 153.58,134.03 200.88,176.7 50.74,-24.17 99.67,-81.04 140.51,-115.07 82.93,141.67 180.49,295.67 315,395 49.86,36.83 109.73,81.31 180,90 12.01,24.61 -2.35,70.72 10,95 140.67,-1.27 271.31,-47.61 405,-40 250,415 632.15,142.28 675,80 z m -1685,-3505 c -55,-25 -111.53,-43.14 -155.29,-37.109 -25.63,3.531 -55.03,30.89 -81.31,47.75 -82.66,53.078 -174.24,109.32 -248.7,152.808 -22.71,-21.539 -53.81,-19.679 -62.18,-47.75 -9.39,-31.48 13.26,-87.687 19.12,-109.828 12.09,-45.551 32.48,-109.769 38.26,-148.043 -65.08,-27.316 -143.91,-40.957 -215.21,-62.078 -18.62,6.891 -29.53,21.449 -47.83,28.649 -103.26,350.582 -215.62,692.061 -325.24,1036.271 -85.17,0.68 -169.58,0.58 -248.71,-4.78 -22.36,-59.04 -43.74,-169.54 -47.91,-230.89 68.44,-38.31 171.13,-36.07 248.79,-65.19 35.42,-52.11 14.94,-164.54 9.57,-233.99 -74.96,-23.851 -199.3,1.59 -282.19,-14.332 -10.11,-32.878 1.58,-96.269 -6.17,-131.488 105.47,-14.09 239.55,-5.898 345,-20 43.15,-46.621 20.31,-96.219 19.88,-178.012 -0.31,-58.558 1.92,-116.597 0,-167.136 -80.11,-7.34 -526.91,69.597 -602.63,85.949 -11.48,22.527 -33,88.91 -33.5,100.289 -0.85,19.961 -23.91,1222.51 -23.91,1222.51 236.33,-26.69 485.63,-55.13 715.16,-88.6 56.65,-43.8 -14.93,-154.03 -20,-220 160.99,101.4 317.21,274.68 591.44,232.19 167.12,-56.39 314.63,-265.62 263.05,-510.97 -1.74,-8.3 -11.05,-13.53 -14.34,-23.87 -3.61,-11.29 -0.8,-27.08 -4.8,-38.2 -21.87,-61.14 -67.48,-116 -90.87,-167.15 35.11,-28.87 77.26,-47.46 114.8,-71.629 38.42,-24.742 88.22,-82.679 135.72,-95.371 8.93,101.442 55,1155 60.37,1203.27 175.18,-34.74 379.87,-97.12 511.78,-181.47 46.95,-30.03 68.81,-50.98 105.21,-85.95 46.87,-45.02 104.38,-106.17 119.57,-167.14 24.28,-97.45 -10.02,-172.07 -43.04,-224.45 -49.96,-79.22 -133.4,-135.99 -220.01,-167.14 21.78,-27.48 56.75,-32.49 86.09,-47.76 89.08,-46.35 163.37,-109.81 239.15,-167.14 l 52.6,-85.95 c 5.25,-31.352 16.25,-57 28.71,-81.168 23.17,-166.621 -58.47,-228.961 -133.93,-300.864 -28.84,-6.238 -51.3,-24.968 -76.52,-38.207 -24.22,-12.703 -53.84,-21.179 -71.76,-42.992 -38.79,1.199 -64.22,-23.379 -90.87,-33.41 -34.03,-12.828 -71.59,-13.07 -105.22,-38.207 -49.06,-3.531 -86.67,-18.5 -119.57,-38.203 -58.77,-1.82 -100.16,-20.988 -143.49,-38.188 -11.15,0 -22.31,0 -33.47,0 -16.88,-15.41 -46.78,-11.242 -76.54,-19.113 -24.45,-6.488 -41.29,-22.019 -62.16,-19.109 -19.81,2.761 -18.54,288.652 -16.9,333.191 z M 2530.14,390.34 c -23.47,223.289 -74.13,419.441 -105.23,635.12 -83.36,35.77 -171.55,88.12 -143.48,219.66 18.71,35.44 56.45,51.9 76.51,85.97 -27.88,62.29 -38.59,144.83 -57.38,210.11 -30.33,105.34 -58.4,216.92 -86.1,319.96 -11.09,41.29 -17.36,97.03 -47.82,119.38 -53.15,-16.96 -78.19,-139.42 -153.06,-85.95 8.78,48.29 1.16,91.87 9.57,133.71 15.49,77.09 55.58,136.67 86.1,195.8 -81.36,25.43 -198.68,14.93 -267.84,52.52 72.52,107.47 214.61,145.48 363.49,176.7 -11.18,50.91 -75.27,49.01 -76.53,109.83 109.17,10.25 200.77,6.37 282.2,-14.32 31.46,-8 56.69,-27.07 86.08,-23.88 26.29,2.85 267.55,115.01 296.54,124.15 50.84,16.03 180.05,44.94 196.1,47.76 63.33,11.11 140.36,13.04 210.45,9.55 25.68,-1.28 66.67,3.04 81.3,-23.87 -21.12,-54.09 -91.28,-75.18 -133.92,-100.3 -15.62,-9.19 -42.45,-15.89 -43.05,-38.19 211.42,12.49 313.9,-106.09 363.51,-257.87 12.3,-37.7 13.76,-71.99 19.13,-114.62 8.18,-64.96 38.68,-137.51 9.56,-205.34 -53.88,29.15 -116.17,53.65 -191.32,66.84 -121.13,21.3 -281.29,7.74 -416.1,4.79 9.59,-47.74 11.18,-103.44 19.12,-152.8 114.51,-56.02 168.97,-171.96 172.2,-339.06 60.12,10.03 125.7,3.05 181.74,-4.79 88.59,-41.21 130.57,-131.8 148.27,-248.32 8.24,-54.29 18.19,-117.16 19.14,-162.36 2.18,-104.83 -46.03,-158.188 -114.8,-186.25 -86.14,-35.129 -195.56,-34.532 -306.1,-47.75 22.76,-74.86 -6.79,-134.969 9.57,-210.122 10.24,-47.078 70.79,-95.5 66.95,-148.039 -1.88,-25.75 -25.29,-42.039 -38.26,-62.07 15.32,-67.488 10.46,-155.117 33.49,-214.898 12.84,-141.95 -105.23,-143.27 -105.23,-143.27 -12.02,-2.191 -22.4,-11.512 -33.48,-14.32 -42.94,-10.8713 -89.75,0.91 -129.14,-23.883 -64.05,-9.7969 -104.47,29.363 -153.05,19.1015 -26.12,15.3125 -53.62,29.2505 -76.53,47.7615 0,11.149 0,22.289 0,33.418 z M 1353.55,4439.89 c 74.35,41.1 168.41,87.34 277.41,57.31 4.54,-1.26 7.75,-11.17 14.34,-14.33 8.93,-4.27 23.92,-2.15 28.7,-4.77 14.93,-8.22 32.3,-25.34 47.83,-38.21 42.12,-34.9 67.46,-77.1 90.88,-119.39 98.3,-8.81 203.18,-35.44 301.31,-28.65 -8.59,141.13 -56.31,268.42 -52.6,405.92 143.45,31.86 277.56,73.07 425.66,100.28 8.75,-16.75 34.83,-16.17 43.06,-33.43 5.82,-182.02 21.56,-354.12 38.26,-525.3 71.98,-17.27 173.22,-5.32 210.45,-57.3 -26.68,-81.7 -86.47,-148.19 -138.71,-210.12 -17.82,-21.11 -48.66,-47.55 -52.62,-66.85 -7.88,-38.44 16.2,-82.19 14.36,-133.71 28.96,-5.89 48.6,22.46 76.53,33.42 323.23,126.9 484.88,-272.07 516.54,-453.67 25.13,-144.13 20.17,-334.33 -33.48,-429.78 -77.01,-28.17 -157.27,-53.09 -253.5,-62.08 -8.03,17.43 -32.04,18.93 -43.04,33.42 5.49,164.11 18.37,567.34 -114.78,577.84 -47.7,3.76 -119.37,-28 -129.14,-62.09 -6.86,-23.9 45.5,-450.97 57.4,-558.73 -43.52,-17.77 -258.69,-67.23 -291.76,-57.29 -43.9,13.16 -40.49,101.59 -47.84,148.03 -29.16,184.44 -80.24,443.68 -100.44,620.81 -39.73,1.03 -59.93,-36.42 -86.08,-57.31 -25.92,-20.71 -369.88,-266.37 -521.33,-348.61 -29.81,-16.18 -68.58,-27.85 -90.88,-57.3 31.43,-93.83 136.18,-471.79 157.84,-558.73 9.39,-37.73 27.99,-80.34 23.91,-105.05 -4.65,-28.18 -51.35,-57.85 -86.09,-76.41 -91.93,-49.12 -300.41,-138.71 -382.62,-33.43 -12.88,89.18 -34.73,194.2 -57.4,272.2 -17.73,60.96 -34.05,121.36 -52.61,181.46 -75,242.92 -146.887,480.1 -253.501,692.45 -34.703,-11.12 -66.496,-2.68 -86.086,4.77 -37.16,14.11 -43.46,18.12 -71.746,42.97 -29.714,26.14 -57.32,63.1 -57.398,105.07 -0.066,42.29 30.351,67.15 47.832,105.06 -17.039,35.51 -100.438,181.47 -100.438,181.47 -20.246,46.63 -43.875,89.9 -76.523,124.15 -15.477,40.27 -64.488,104.38 -91.945,132.68 -19.211,-40.4 19.992,-155.82 24.98,-213.86 -72.996,5.11 -93.859,93.57 -138.312,127.19 -20.285,-14.77 -0.25,-92.31 -5.172,-122.42 -29.313,-7.54 -131.496,79.09 -133.922,238.77 -75.813,-19.81 -109.9649,-81.21 -172.1837,-114.6 0.586,19.68 -25.78905,12.45 -28.6953,28.65 17.2305,90.14 55.6719,149.27 105.227,214.89 22.793,30.2 58.507,64.2 62.175,85.96 3.864,22.9 -43.773,188.18 -38.265,248.32 1.269,13.81 0.836,167.1 148.269,219.67 4.903,-11.02 6.438,-25.41 23.918,-23.87 0.981,-53.68 -9.035,-93.93 4.785,-138.49 49.809,76.02 104.329,147.33 172.176,205.35 125.02,104.44 273.391,88.36 325.238,95.5 19.77,-0.96 14.918,-26.48 38.258,-23.87 -65.746,-77 -261.808,-213.86 -296.531,-343.84 52.91,0.67 129.723,57.09 200.879,47.76 30.105,-3.95 50.898,-22.29 76.527,-38.21 -10.976,-28.83 -42.176,-37.48 -66.965,-52.52 -48.125,-37.86 -97.507,-72.99 -143.484,-119.39 -19.867,-20.04 -53.187,-42.82 -52.613,-76.41 51.375,-24.28 119.562,-5.36 186.535,-9.55 13.312,-0.83 24.34,-7.9 38.266,-9.55 9.691,-1.15 20.621,5.3 33.476,4.77 20.738,-0.84 29.68,-11.52 38.262,-9.54 37.387,8.61 61.765,64.57 90.875,85.95 20.453,15.02 54.222,26.83 90.872,38.21 15.78,4.89 28.81,17.44 38.26,19.1 26.8,4.67 61.31,3.96 86.1,0 14.75,-2.36 27.46,-15.41 47.82,-14.33 43.66,2.32 116.84,-64.82 143.49,-76.41"
         style="fill:#721d25;fill-opacity:1;fill-rule:evenodd;stroke:none"
         id="path44" /><path
         d="m 4703.61,2197.21 c -19,49.91 -28.85,142.81 -62.39,201.59 -27.18,47.62 -78.24,90.99 -134.39,38.39 6.27,-93.29 47.13,-176.33 38.39,-268.77 -24.13,1.56 -52.91,-11.83 -67.19,-4.8 -38.51,119.88 -83.14,233.63 -115.19,359.97 33.12,18.08 77.88,24.51 119.99,33.59 10.58,-7.01 -2.82,-38.01 14.4,-38.39 47.43,23.11 85.51,59.54 143.99,47.99 6.51,-1.28 25.92,-9.57 33.59,-14.39 81.19,-51.1 125.14,-241.06 134.39,-335.98 -31.52,-10.07 -64.11,-19.08 -105.59,-19.2 z m -427.16,-32.12 c -20.35,-17.83 -39.77,-51.55 -76.79,-62.4 -104.66,-30.66 -222.65,20.06 -191.99,143.99 17.77,71.82 129.12,79.26 167.98,124.79 -23.78,73.24 -112.38,27.72 -148.78,-4.8 -60.83,46.19 1.71,128.01 47.99,148.79 106.16,47.65 178.46,-61.15 220.78,-124.79 34.51,-51.88 77.19,-143.24 100.8,-206.39 -35.46,-13.69 -83.3,-49.05 -119.99,-19.19 z m 1102.44,448.23 c -57.75,62.32 -149.71,109.26 -235.18,129.59 18.73,-154.05 67.58,-277.98 81.59,-436.76 -24.52,-4.29 -42.12,-15.48 -62.4,-24 -25.86,-6.66 -20.11,18.28 -43.19,14.4 -42.44,-51.52 -149.14,-65.72 -215.98,-28.8 -110.07,105.43 -2.45,267.05 153.58,259.18 -22.3,89.69 -48.9,175.08 -76.79,259.18 -93.28,11.5 -189.7,24.87 -287.98,19.2 -669.24,-38.65 -875.14,-328.14 -911.92,-417.57 -11.26,-27.38 -24.32,-72.31 -19.2,-100.79 48.55,-270.29 457.94,-350.95 671.94,-335.98 509.94,35.69 753.81,174.38 863.93,268.78 46.06,39.49 236.01,226.91 81.6,393.57"
         style="fill:#cf181f;fill-opacity:1;fill-rule:evenodd;stroke:none"
         id="path46" /><path
         d="m 5019.97,2303.33 c 106.65,3.82 107.58,127.71 37.35,130.94 -124.02,5.72 -130.68,-134.28 -37.35,-130.94"
         style="fill:#cf181f;fill-opacity:1;fill-rule:evenodd;stroke:none"
         id="path48" /><path
         d="m 4219.38,2270.92 c -88.25,60.03 -155.4,-38.09 -85.59,-77.75 79.76,-45.3 135.55,43.78 85.59,77.75"
         style="fill:#cf181f;fill-opacity:1;fill-rule:evenodd;stroke:none"
         id="path50" /><path
         d="m 3542.09,4440.38 c 3.36,-75.14 -1.08,-152.06 -5.74,-232.73 -2.14,-37.08 -4.33,-75 -5.7,-113.01 -43.56,-5.26 -90.36,-8.16 -139.04,-11.18 -52.96,-3.28 -107.39,-6.66 -159.28,-13.46 -8.11,65.51 -16.68,130.99 -25.01,194.64 -6.69,51.08 -13.53,103.39 -20.14,155.78 5.64,-0.14 11.32,-0.27 17.03,-0.27 4.68,0 9.37,0.08 14.07,0.28 46.37,1.96 95.58,5.73 143.17,9.39 58.35,4.48 113.47,8.72 162.53,9.76 6.46,0.14 12.58,0.47 18.11,0.8"
         style="fill:#ed1c24;fill-opacity:1;fill-rule:nonzero;stroke:none"
         id="path52" /><path
         d="m 3542.09,4440.38 c 3.36,-75.14 -1.08,-152.06 -5.74,-232.73 -2.14,-37.08 -4.33,-75 -5.7,-113.01 -43.56,-5.26 -90.36,-8.16 -139.04,-11.18 -52.96,-3.28 -107.39,-6.66 -159.28,-13.46 -8.11,65.51 -16.68,130.99 -25.01,194.64 -6.69,51.08 -13.53,103.39 -20.14,155.78 5.64,-0.14 11.32,-0.27 17.03,-0.27 4.68,0 9.37,0.08 14.07,0.28 46.37,1.96 95.58,5.73 143.17,9.39 58.35,4.48 113.47,8.72 162.53,9.76 6.46,0.14 12.58,0.47 18.11,0.8"
         style="fill:none;stroke:#ed1c24;stroke-width:20;stroke-linecap:butt;stroke-linejoin:miter;stroke-miterlimit:10;stroke-dasharray:none;stroke-opacity:1"
         id="path54" /><path
         d="m 3547.83,3875.16 c -4.22,-152.62 -18.87,-464.51 -30.9,-720.74 -5.62,-119.54 -10.66,-226.82 -13.69,-298.03 -34.2,-5.47 -67.36,-10.5 -102.57,-12.88 -17.15,143.81 -39.25,293.58 -60.69,438.83 -20.94,141.97 -42.6,288.79 -59.55,429.27 -2.73,22.66 -5.98,45.08 -9.11,66.77 -4.72,32.61 -9.28,64.15 -11.98,95.09 13.1,0.39 27.4,0.58 43.1,0.58 25.83,0 53.03,-0.5 79.34,-0.99 26.29,-0.48 53.47,-0.99 79.33,-0.99 22.95,0 42.66,0.4 60.26,1.22 8.36,0.38 16.4,1.05 23.49,1.63 1,0.08 2,0.17 2.97,0.24"
         style="fill:#ed1c24;fill-opacity:1;fill-rule:nonzero;stroke:none"
         id="path56" /><path
         d="m 3547.83,3875.16 c -4.22,-152.62 -18.87,-464.51 -30.9,-720.74 -5.62,-119.54 -10.66,-226.82 -13.69,-298.03 -34.2,-5.47 -67.36,-10.5 -102.57,-12.88 -17.15,143.81 -39.25,293.58 -60.69,438.83 -20.94,141.97 -42.6,288.79 -59.55,429.27 -2.73,22.66 -5.98,45.08 -9.11,66.77 -4.72,32.61 -9.28,64.15 -11.98,95.09 13.1,0.39 27.4,0.58 43.1,0.58 25.83,0 53.03,-0.5 79.34,-0.99 26.29,-0.48 53.47,-0.99 79.33,-0.99 22.95,0 42.66,0.4 60.26,1.22 8.36,0.38 16.4,1.05 23.49,1.63 1,0.08 2,0.17 2.97,0.24"
         style="fill:none;stroke:#ed1c24;stroke-width:20;stroke-linecap:butt;stroke-linejoin:miter;stroke-miterlimit:10;stroke-dasharray:none;stroke-opacity:1"
         id="path58" /><path
         d="m 3563.01,1811.73 c 183.97,-20.87 396.6,-45.63 593.96,-73.65 -3.42,-17.85 -11.91,-43.27 -17.16,-58.99 -9.01,-26.96 -18.29,-54.75 -21.88,-81.8 l -4.1,0.04 c -21.7,0.18 -43.35,0.29 -64.87,0.29 -77.32,0 -135.66,-1.61 -189.15,-5.23 l -44.81,-3.04 -15.92,-42.01 c -25.66,-67.76 -47.75,-184.46 -52.28,-250.93 l -3.01,-44.2 38.65,-21.64 c 49.1,-27.48 105.69,-37.38 160.41,-46.96 24.96,-4.37 48.98,-8.57 70.55,-14.16 5.08,-30.16 0.49,-83.59 -2.87,-116.96 -11.52,-0.7 -22.86,-0.83 -32.42,-0.83 -16.82,0 -34.18,0.5 -52.54,1.03 -18.58,0.54 -37.77,1.1 -56.62,1.1 -36.47,0 -64.86,-2.19 -89.34,-6.9 l -41.34,-7.93 -12.37,-40.23 c -8.75,-28.441 -7.81,-60.609 -6.92,-91.71 0.46,-15.68 1.09,-37.161 -0.71,-45.309 l -16.37,-74.352 75.46,-10.089 c 56.49,-7.551 119.28,-9.09 180.02,-10.579 44.11,-1.101 89.39,-2.211 130.3,-5.691 0.64,-8.668 -0.14,-21.941 -2.21,-44.531 -1.78,-19.539 -3.81,-41.68 -3.95,-67.449 -0.12,-23.122 0.14,-46.008 0.39,-68.149 0.1,-8.891 0.2,-17.641 0.28,-26.242 -127.6,12.519 -377.81,54.391 -482.58,74.141 -6.11,17.39 -12.23,36.851 -14.38,45.761 -1.48,61.09 -14.3,724.639 -22.22,1137.199 m 1881.81,-1143.949 71.08,9.489 c 15.47,2.07 74.72,15.902 121.93,28.468 112.03,29.813 132.11,44.192 146.72,59.891 l 43.48,46.723 -42.52,47.597 c -23.16,25.93 -62.56,51.172 -111.66,81.473 -11.47,7.066 -22.28,13.738 -29.46,18.539 -24.06,16.078 -48.73,30.918 -72.56,45.269 -6.62,3.98 -13.22,7.94 -19.76,11.92 -14.03,13.6 -33.2,21.64 -54.22,21.64 -3.93,0 -7.97,-0.29 -11.97,-0.84 l -51.5,-7.15 -8.03,-51.37 c -9.05,-57.821 -0.78,-140.68 8.45,-220.602 0.85,-7.379 1.63,-14.027 2.25,-19.769 l 7.77,-71.278 M 4716.6,1511.47 c -26.07,0 -53.81,0.06 -81.27,0.12 -27.07,0.06 -53.88,0.12 -78.62,0.12 -33.3,0 -57.46,-0.11 -76.04,-0.35 l -66.22,-0.81 -2.24,-52.14 c -6.7,-16.65 -6.39,-32.15 -4.4,-43.46 l 0.94,-5.31 1.73,-5.11 c 7.16,-21.09 17,-54.34 27.43,-89.53 19.92,-67.31 40.49,-136.84 58.16,-178.09 10.04,-27.11 36.04,-46.21 66.37,-46.21 33.99,0 50.06,6.79 161.84,149.06 38.24,48.7 104.9,136.03 121.46,173.77 l 43.4,98.91 -108.01,-0.78 c -19.25,-0.15 -41.23,-0.19 -64.53,-0.19 m 690.04,-14.73 84.67,18.14 c 32.15,6.89 64.63,21.8 96.05,36.2 21.94,10.06 44.61,20.46 60.13,24.47 l 169.67,43.87 -153.2,85.1 c -165.85,92.14 -171.62,92.14 -190.66,92.14 l -85.33,0.25 16.62,-83.64 c 2.52,-14.7 2.25,-76.04 2.12,-105.51 -0.04,-8.82 -0.07,-17.1 -0.07,-24.43 v -86.59 m -99.59,527.45 c 167.51,-39.57 316.69,-95.67 409.02,-154.7 41.25,-26.39 59.03,-43.46 94.44,-77.46 21.74,-20.89 87.89,-84.43 100.13,-133.59 18.32,-73.54 -8.71,-129.58 -34.32,-170.18 -37.45,-59.39 -104.7,-109.91 -184.49,-138.61 l -91.71,-32.99 60.54,-76.37 c 26.82,-33.83 61.71,-47.38 87.19,-57.28 8.09,-3.14 15.72,-6.11 21.45,-9.09 65.35,-33.99 124.82,-80.15 182.34,-124.78 11.87,-9.21 24.04,-18.67 36.27,-28.01 l 39.16,-63.97 c 6.63,-30.351 17.16,-55.711 27.04,-76.039 12.33,-110.66 -31.94,-152.211 -97.87,-214.09 -1.32,-1.23 -2.63,-2.472 -3.95,-3.699 -21.77,-7.691 -39.63,-18.621 -54.67,-27.812 -6.62,-4.059 -12.89,-7.891 -18.54,-10.848 -4.57,-2.391 -10.25,-4.973 -16.29,-7.692 -15.39,-6.949 -34.66,-15.671 -52.83,-29.609 -29.96,-5.25 -53.16,-18.152 -69.76,-27.383 -6.06,-3.367 -12.33,-6.859 -15.88,-8.199 -7.6,-2.867 -16.89,-5.098 -27.63,-7.699 -22.41,-5.418 -49.33,-11.93 -76.89,-28.039 -41.11,-5.129 -78.67,-17.192 -115.92,-37.223 -56.09,-4.609 -98.43,-21.699 -136.21,-36.949 -0.16,-0.07 -0.33,-0.117 -0.48,-0.188 h -19.95 -27.16 l -13.98,-12.769 c -3.41,-0.524 -7.98,-1.063 -11.67,-1.492 -8.63,-1.02 -18.84,-2.211 -29.99,-4.469 -3.87,75.461 -4.56,194.617 -2.86,241.141 l 4.15,113.128 -103.05,-46.839 c -58.19,-26.461 -91.14,-32 -108.53,-32 -2.21,0 -4.28,0.078 -6.18,0.269 -6.49,2.879 -20.45,13.078 -29,19.301 -8.34,6.09 -17,12.398 -26.1,18.25 -83.48,53.59 -175.04,109.848 -251.23,154.34 l -45.15,26.699 -38.11,-36.16 c -1.55,-1.219 -7.02,-3.758 -11.02,-5.61 -18.27,-8.492 -56.28,-26.148 -70.27,-73.101 -13.72,-45.938 3.21,-99.18 14.41,-134.41 1.67,-5.239 3.4,-10.649 4.13,-13.399 3.69,-13.941 7.96,-28.968 12.5,-44.879 3.69,-12.961 7.57,-26.601 11.15,-39.761 -22.93,-6.719 -47.29,-12.801 -72.39,-19.071 -16.23,-4.058 -32.8,-8.199 -49.34,-12.609 -77.37,261.16 -160.71,520.84 -241.38,772.23 -20.66,64.39 -41.33,128.78 -61.91,193.25 l 29.69,18.7 c 34.1,21.48 67.98,45.99 100.76,69.71 107.57,77.82 218.8,158.3 370.05,158.3 21.57,0 43.89,-1.63 66.45,-4.85 133.11,-48.43 249.53,-218.36 213.73,-416.51 -4.86,-6.66 -10.88,-16.32 -14.84,-28.78 -4.67,-14.62 -5.16,-28.27 -5.49,-37.3 -0.04,-0.9 -0.08,-1.95 -0.12,-2.91 -10.47,-27.21 -28.08,-55.59 -45.13,-83.08 -14.87,-23.99 -30.26,-48.78 -41.9,-74.24 l -22.39,-48.98 41.6,-34.2 c 27.02,-22.219 55.22,-38.141 82.49,-53.531 13.83,-7.797 26.88,-15.168 38.86,-22.887 9.45,-6.082 22.55,-17.32 36.41,-29.231 34.18,-29.312 72.91,-62.562 119.12,-74.91 l 80.51,-21.519 7.31,83.008 c 4.9,55.82 20,375.88 34.59,685.42 7.61,161.81 15.95,338.73 21.09,438.25 m -2206.03,623.2 c -21.49,-10.56 -65.43,-35.46 -66.92,-91.47 l -2.04,-76.25 76.14,4.5 c 8.78,0.51 17.49,0.79 25.89,0.79 135.19,0 220.01,-66.9 266.95,-210.51 7.32,-22.44 9.8,-44.84 12.92,-73.21 1.01,-9.13 2.06,-18.57 3.3,-28.43 2.49,-19.78 6.54,-39.12 10.45,-57.82 2.49,-11.89 4.89,-23.32 6.8,-34.29 -37.95,13.83 -76.89,24.19 -117.44,31.31 -49.72,8.74 -107.27,12.81 -181.12,12.81 -51.88,0 -104.78,-2.01 -155.94,-3.94 -32.41,-1.23 -63.01,-2.4 -92.69,-3.05 l -83.55,-1.83 16.45,-81.93 c 4.65,-23.17 7.27,-49.73 10.03,-77.84 2.34,-23.76 4.75,-48.32 8.61,-72.3 l 5.76,-35.82 32.59,-15.94 c 86.69,-42.41 130.19,-133.19 132.97,-277.52 l 1.56,-81.04 79.94,13.34 c 15.99,2.67 34.09,4.01 53.8,4.01 32.6,0 65.99,-3.6 95.53,-7.55 35.45,-19.16 80.37,-62.05 99.97,-191.04 l 1.48,-9.74 c 7.53,-49.5 16.08,-105.6 16.87,-143.57 1.65,-79.22 -33.27,-104.47 -71.24,-119.97 -53.34,-21.758 -123.57,-27.828 -197.92,-34.258 -29.22,-2.531 -59.44,-5.152 -90.06,-8.812 l -82.96,-9.918 24.3,-79.93 c 8.29,-27.274 6.34,-53.09 3.87,-85.774 -2.61,-34.546 -5.56,-73.718 4.26,-118.878 7.14,-32.79 25.39,-60.329 41.48,-84.622 7.61,-11.476 19.63,-29.628 23.11,-39.418 -1.92,-2.359 -4.29,-5.109 -6.12,-7.238 -5.98,-6.933 -13.43,-15.57 -20.13,-25.91 l -16.04,-24.762 6.53,-28.769 c 5.4,-23.781 7.99,-52.492 10.73,-82.879 3.99,-44.242 8.1,-89.863 21.86,-130.981 0.89,-21.089 -2.65,-37.269 -10.18,-46.043 -8.61,-10.019 -23.74,-12.328 -27.39,-12.738 l -3.56,0.192 -7.47,-1.364 c -17.43,-3.168 -30.49,-10.226 -39.12,-14.906 -0.68,-0.371 -1.36,-0.742 -2.03,-1.121 -9.29,-1.883 -21.11,-2.473 -33.56,-3.09 -27.93,-1.391 -61.75,-3.082 -96.05,-19.531 -0.05,-0.012 -0.09,-0.012 -0.14,-0.012 -13.71,0 -27.78,4.262 -44.09,9.184 -20.55,6.207 -43.86,13.238 -71.29,13.238 -0.4,0 -0.81,0 -1.22,0 -7.64,4.34 -15.11,8.57 -22.16,12.809 v 5.281 l -2.09,8.359 -51.42,205.391 c -14.01,130.898 -37.21,253.469 -59.66,372.07 -16.03,84.602 -32.59,172.09 -45.38,260.79 l -5.6,38.85 -36.08,15.48 c -87.58,37.59 -114.01,68.91 -104.8,128.98 4.79,5.73 11.88,12.09 19.76,19.14 15.86,14.21 35.62,31.89 50.79,57.67 l 18.34,31.14 -14.76,32.98 c -15.1,33.73 -25.16,78.81 -34.88,122.42 -5.84,26.17 -11.87,53.24 -19.13,78.45 -20.28,70.44 -39.74,144.48 -58.57,216.08 -9.15,34.79 -18.19,69.19 -27.19,102.68 -1.92,7.13 -3.8,15.35 -5.79,24.04 -10.22,44.73 -22.95,100.4 -68.24,133.62 l -28.73,21.08 -33.96,-10.83 c -21.95,-7.01 -39.33,-19.78 -53.86,-34.21 0.09,0.5 0.19,0.99 0.29,1.49 10.06,50.06 33.45,92.61 58.22,137.66 7.13,12.94 14.5,26.34 21.45,39.83 l 38.22,74.05 -79.54,24.87 c -41.47,12.95 -87.06,17.7 -131.16,22.29 -3.05,0.31 -6.1,0.63 -9.15,0.95 63.22,33.37 144.56,52.85 229.44,70.65 l 69.17,14.5 -15.16,69.03 c -2.45,11.14 -6.08,21.04 -10.47,29.88 47.91,-1.47 90.82,-7.15 130.52,-17.24 6.6,-1.68 14.51,-4.93 22.87,-8.37 19.52,-8.02 43.81,-18.02 73.82,-18.02 4.75,0 9.54,0.26 14.18,0.77 22.27,2.41 57.73,16.57 210.83,84.15 39.85,17.6 89.44,39.48 99.22,42.83 46.86,14.78 173.42,43.15 187.14,45.58 28.57,5.01 62.52,8.22 99.64,9.47 m 1604.97,1090.68 102.63,25.68 c 7.55,1.89 17.34,4 27.69,6.24 61.29,13.23 130.74,28.24 165.88,74.08 l 31.03,40.49 -29.03,41.94 -2.37,3.42 c -33.32,48.15 -71.08,102.72 -114.53,133.72 l -78.56,56.04 -28.89,-92.07 c -3.75,-11.95 -9.61,-28.38 -15.82,-45.78 -16.43,-46.09 -35.06,-98.34 -41.52,-139.25 l -16.51,-104.51 m -700.15,502.66 c -7.83,-33.77 -14.02,-72.34 -10.2,-121.03 l 6.41,-81.68 79.67,19.08 c 43.4,10.39 86.8,15.88 125.49,15.88 39.63,0 73.34,-5.71 97.52,-16.51 30.37,-13.56 58.38,-32.7 85.62,-58.52 15.73,-14.91 36.13,-33.99 55.52,-52.13 16.01,-14.98 31.34,-29.31 42.68,-40.03 l 72.55,-68.58 39.75,91.58 c 12.51,28.83 23.66,59.14 34.44,88.44 32.87,89.34 63.91,173.72 124.65,202.13 5.92,2.78 20.2,7.74 24.71,8.65 10.35,1.69 20.45,2.56 29.98,2.56 41.97,0 74.2,-16.17 115.66,-44.09 60.91,-41 87.84,-71.3 133.99,-125.7 l 11.97,-14.06 c 67.67,-79.38 127.16,-149.17 130.98,-254.35 -72.45,-25.81 -150.51,-48.01 -226.42,-69.6 -81.75,-23.25 -166.27,-47.29 -245.79,-76.22 l -67.82,-24.66 26.73,-67.04 c 3.64,-9.15 6.93,-19.08 10.42,-29.58 15.06,-45.39 35.69,-107.56 104.28,-130.32 15.1,-5.02 31.21,-7.56 47.87,-7.56 55.3,0 104.34,28.06 127.91,41.53 l 0.61,0.35 c 66.68,38.15 124.39,96.79 170.77,143.91 1.3,1.31 2.59,2.62 3.86,3.92 14.88,-12.37 30.08,-26.76 44.28,-40.21 14.75,-13.97 28.69,-27.17 42.89,-39 l 43.59,-36.34 -112.57,-90.28 c -24.2,-19.41 -47.59,-40.49 -70.19,-60.88 -77.96,-70.27 -151.59,-136.65 -256.38,-136.65 -11.56,0 -23.59,0.79 -35.73,2.35 -181.9,23.32 -209.8,114.32 -230.16,180.76 -8.21,26.78 -15.29,49.91 -33.66,68.72 l -74.96,76.74 -40.06,-99.51 c -8.28,-20.58 -14.73,-45.7 -21.54,-72.29 -4.69,-18.31 -12.95,-50.48 -21.21,-72.38 -47.56,3.74 -96.94,4.96 -145.06,6.15 -23.58,0.59 -47.64,1.19 -71.29,2.08 61.7,197.37 114.76,490.78 38.98,616.44 l -14.21,23.57 -26.45,7.58 c -18.39,5.27 -38.98,7.94 -61.19,7.94 -23.15,0 -101.96,-3.66 -144.36,-50.73 l -13.77,-15.29 -3.31,-20.31 c -8.51,-52.32 -17.31,-108.94 -25.83,-163.69 -16.37,-105.27 -33.3,-214.12 -50.45,-307.69 -1.79,-9.76 -3.03,-19.14 -4.24,-28.2 -0.08,-0.71 -0.17,-1.42 -0.27,-2.14 -22.45,1.74 -45.27,2.38 -67.71,3 -31.39,0.87 -67.82,1.88 -94.91,6.75 26.15,264.88 35.45,497.64 45.27,743.19 1.63,40.6 3.25,81.44 4.98,122.71 31.55,6.66 67.1,11.64 95.69,15.65 6.56,0.93 12.83,1.81 18.75,2.66 9.81,1.42 22.42,1.51 35.78,1.62 16.95,0.13 36.14,0.27 55.59,3.23 12.75,1.94 24.72,4.65 36.33,7.27 1.18,0.27 2.38,0.54 3.57,0.81 m 1455.64,-958.53 141.37,14.01 c 61.45,6.09 154.43,6.56 229.13,6.93 11.01,0.06 21.65,0.11 31.8,0.18 l 75.22,0.52 -5.91,74.99 c -3.51,44.39 -10.98,93.73 -18.19,141.44 -7.56,49.95 -15.37,101.59 -18.28,145.43 l -0.21,67.93 h -70 c -38.29,0 -45.63,-7 -157.03,-149.83 -23.54,-30.18 -102.68,-132.41 -132.88,-180.97 L 5461.48,3282.2 M 6546,4317.2 v -70 c 117.51,0 221.7,-68.79 259.48,-101.73 -2.78,-65.95 -5.91,-129.09 -15.63,-185.07 -55.1,16.01 -129.03,37.02 -194.49,37.02 -34.64,0.01 -63.6,-5.69 -88.52,-17.42 l -14.85,-6.99 -10.19,-12.86 c -48.15,-60.69 -37.33,-113.59 -26.6,-139.72 12.05,-29.33 48.69,-118.53 356.61,-156.18 178.97,-58.62 278.29,-160.89 279.83,-288.43 0.24,-20.28 -23.55,-54.33 -42.69,-81.7 -2.96,-4.24 -5.91,-8.46 -8.81,-12.66 -95.97,-139.1 -438.79,-170.41 -551.31,-170.41 -2.46,0 -4.42,0.02 -5.88,0.07 -2.39,0.07 -4.82,0.11 -7.29,0.11 -16.31,0 -32.8,-1.61 -47.34,-3.04 -6.54,-0.64 -12.87,-1.26 -18.52,-1.67 -25.37,44.59 -52.13,125.96 -75.16,207.76 45.85,-2.75 88.7,-4.14 128.11,-4.14 186.59,0 297.59,30.53 329.91,90.73 9.27,17.29 11.85,36.72 7.85,54.68 -3.95,26.52 -19.71,65.19 -75.22,85.78 -25.68,9.53 -56.27,13.99 -91.67,19.16 -103.31,15.07 -244.79,35.72 -373.77,186.64 l -107.8,126.15 -15.12,-165.24 c -8.45,-92.33 -15.39,-188.75 -22.09,-281.99 -9.9,-137.82 -20.09,-279.73 -35.48,-412.47 -2.8,-0.04 -5.59,-0.06 -8.36,-0.06 -54.07,0 -94.59,6.47 -119.19,13.45 -2.08,7.94 -4.66,18.18 -5.35,23.53 l 15.33,110.1 -108.26,-37.87 c -31.78,-11.11 -64.12,-25 -95.39,-38.44 -78.55,-33.75 -159.78,-68.64 -248.42,-68.64 -17.16,0 -34.45,1.32 -51.24,3.92 -7.19,1.22 -32.07,8.68 -45.84,14.46 -81.83,34.4 -134.01,152.82 -121.37,275.45 l 14.36,139.39 4.66,-3.89 41.76,71.32 c 77.49,132.38 170.68,281.38 296.17,374.05 l 0.9,0.67 c 44.3,32.71 94.49,69.79 146.1,76.16 l 37.67,4.66 16.64,34.1 c 8.5,17.39 11.33,35.26 12.07,51.91 37.33,-3.76 74.77,-9.83 113.55,-16.12 63.35,-10.29 128.83,-20.92 196.12,-20.92 11.64,0 23.19,0.32 34.35,0.96 l 36.9,2.1 19.08,31.66 c 76.6,127.18 172.29,191.67 284.39,191.67 l 0.01,70 m -5151.81,-885.37 31.48,11.65 c 310.38,114.85 600.59,388.82 631.52,457.9 l 40.68,90.87 -99.27,7.54 c -314.01,23.84 -596.28,39.31 -862.96,47.31 l -124.21,3.72 61.18,-108.16 c 10.42,-18.4 30.3,-54.61 53.32,-96.53 207.57,-377.93 215.6,-382.74 239.47,-397.05 l 28.79,-17.25 M 681.672,4947.79 c -84.07,-77.16 -177.309,-169.61 -204.051,-269.71 l -23.836,-89.23 92.348,1.17 c 29.976,0.38 59.336,10.09 87.898,20.86 -23.929,-19.36 -47.961,-40.16 -71.547,-63.95 -2.55,-2.58 -6.101,-5.84 -9.863,-9.3 -23.945,-21.99 -64.023,-58.81 -63.016,-117.59 l 0.747,-43.49 39.332,-18.59 c 36.718,-17.36 74.863,-19.37 100.359,-19.37 16.777,0 33.469,0.98 49.613,1.93 15.699,0.93 30.524,1.8 44.953,1.8 5.309,0 10.18,-0.12 14.801,-0.36 1.153,-0.36 2.774,-0.91 4.059,-1.34 7.484,-2.53 18.801,-6.35 32.676,-7.99 3.488,-0.42 7.078,-0.63 10.664,-0.63 12,0 21.918,2.32 28.781,4.05 7.383,-3.19 20.855,-8.92 38.351,-8.92 6.039,0 12.079,0.68 17.899,2.03 46.992,10.82 76.156,48.04 97.453,75.23 6.078,7.75 15.262,19.47 19.152,22.51 14.125,10.38 54.855,23.01 70.195,27.78 16.25,5.04 29.02,12.8 37.61,18.11 6.59,0.7 14.1,1.09 21.85,1.09 10.11,0 20.55,-0.66 29.29,-1.82 0.69,-0.33 1.38,-0.67 2.09,-1 11.72,-5.54 31.31,-14.82 58.18,-14.82 1,0 2,0.02 3.01,0.04 14.65,-3.85 48.74,-27.91 65.37,-39.65 19.29,-13.62 34.53,-24.38 49.6,-30.93 l 31.62,-13.74 30.16,16.68 c 50.92,28.15 110.47,58.17 172.74,58.17 11.67,0 23.03,-0.99 34.31,-3.01 5.36,-4.96 12.16,-10.02 20.61,-14.07 12.17,-5.83 23.95,-8.05 33.34,-9.05 4.66,-3.82 10.01,-8.5 13.86,-11.88 5.05,-4.43 10.05,-8.8 14.89,-12.8 32.86,-27.24 53.89,-62.57 74.3,-99.41 l 17.99,-32.49 36.99,-3.32 c 31.58,-2.83 64.11,-7.65 98.55,-12.76 57.27,-8.49 116.49,-17.27 176.07,-17.27 12.96,0 25.67,0.43 37.79,1.27 l 69.26,4.8 -4.22,69.29 c -4.05,66.42 -15.92,128.61 -27.4,188.76 -10.31,54.07 -20.21,105.91 -23.83,157.53 39.15,9.39 77.68,19.21 115.34,28.8 69.26,17.66 140.53,35.82 213.62,50.63 6.77,-169.51 21.4,-328.35 37.11,-489.3 l 4.84,-49.64 48.49,-11.63 c 27.21,-6.54 55.5,-9.36 82.87,-12.09 13.81,-1.38 35.72,-3.57 54.26,-6.91 -23.99,-42.55 -57.78,-82.39 -90.77,-121.29 l -11.78,-13.92 c -3.72,-4.41 -9.02,-9.98 -14.64,-15.89 -21.65,-22.77 -46.19,-48.58 -53.06,-82.05 -7.13,-34.76 -0.22,-66.52 5.88,-94.55 3.93,-18.09 7.65,-35.17 7.09,-50.73 l -2.11,-59.27 58.12,-11.82 c 7.18,-1.46 14.5,-2.2 21.76,-2.2 36.8,0 63.19,18.28 80.65,30.37 4.69,3.25 11.12,7.7 13.65,8.7 33.18,13.02 65.16,19.63 95.05,19.63 191.69,0 303.05,-283.08 326.95,-420.18 22.9,-131.32 15.76,-282.25 -15.34,-361.6 -52.55,-18.35 -109.71,-35.25 -174.44,-44.45 8.14,293.86 -4.15,593.35 -180.55,607.26 -4.38,0.34 -8.91,0.52 -13.48,0.52 -65.42,0 -167.31,-39.3 -188.45,-113.08 -6.62,-23.04 -7.28,-49.68 43.3,-483.31 1.86,-16 3.61,-31.01 5.21,-44.73 -55.78,-14.42 -139.54,-32.31 -183.6,-37.27 -3.12,15.1 -5.1,36.8 -6.34,50.26 -1.25,13.67 -2.43,26.57 -4.35,38.68 -10.24,64.82 -22.96,137.54 -36.42,214.52 -24.91,142.55 -50.69,289.95 -63.61,403.29 l -6.88,60.4 -60.78,1.64 c -1.16,0.03 -2.34,0.05 -3.48,0.05 -57.59,0 -92.86,-36.74 -113.94,-58.7 -5.43,-5.65 -10.55,-10.99 -14.25,-13.94 -19.71,-15.76 -361.81,-260.75 -511.02,-341.78 -5.77,-3.13 -12.87,-6.46 -20.39,-9.98 -29.33,-13.74 -65.83,-30.84 -92.91,-66.58 l -22.3,-29.46 11.73,-35.04 c 30.31,-90.48 134.29,-465.07 156.29,-553.41 3.41,-13.68 7.54,-26.93 11.55,-39.75 2.97,-9.53 7.02,-22.5 9.25,-31.79 -6.92,-6.14 -21.07,-16.85 -48.04,-31.26 -32.59,-17.41 -145.59,-74.22 -231.58,-74.22 -27.57,0 -43.23,6.08 -52.24,12.12 -13.86,88.69 -34.82,185.84 -56,258.67 -6.13,21.1 -12.1,42.14 -18.05,63.12 -11.09,39.1 -22.56,79.53 -34.89,119.46 l -6.9,22.35 c -74.55,241.61 -144.97,469.82 -250.922,680.84 l -26.875,53.53 -57.039,-18.27 c -4.266,-1.37 -8.645,-2.03 -13.399,-2.03 -7.945,0 -16.597,1.82 -26.476,5.58 -28.395,10.78 -28.395,10.78 -50.367,30.09 -21.035,18.5 -33.602,38.18 -33.633,52.63 -0.008,6.39 4.84,14.49 15.91,31.44 8.164,12.5 17.414,26.68 25.492,44.19 l 13.789,29.9 -14.25,29.68 c -16.707,34.83 -86.367,157.18 -100.906,182.66 -24.355,55.43 -49.879,97.57 -79.551,131.23 -23.383,50.28 -72.574,113.25 -101.316,142.88 l -70.172,72.33 -43.285,-91.01 c -8.172,-17.18 -11.61,-36.67 -11.969,-57.82 l -37.359,28.26 -41.996,-30.59 c -6.453,-4.69 -11.864,-9.92 -16.387,-15.56 -6.582,21.62 -11.063,47.03 -11.512,76.39 l -1.351,89.23 -86.332,-22.57 c -18.258,-4.77 -34.672,-11.27 -49.594,-18.82 8.324,12.08 17.473,24.58 27.504,37.87 5.781,7.66 13.121,16.25 20.886,25.35 25.047,29.33 48.7,57.02 54.446,91.14 3.609,21.4 -0.899,44.63 -14.469,108.67 -8.875,41.89 -25.402,119.88 -23.113,144.88 0.121,1.35 0.261,3.48 0.418,6.3 1.691,31.33 8.992,68.04 29.691,98.96 0.758,-19.68 3.465,-40.24 10.293,-62.27 l 44,-141.88 81.41,124.25 c 56.008,85.47 105.008,144.16 158.821,190.25 51.234,42.68 107.484,60.78 158.195,69.03"
         style="fill:#ed1c24;fill-opacity:1;fill-rule:nonzero;stroke:none"
         id="path60" /><path
         d="m 3563.01,1811.73 c 183.97,-20.87 396.6,-45.63 593.96,-73.65 -3.42,-17.85 -11.91,-43.27 -17.16,-58.99 -9.01,-26.96 -18.29,-54.75 -21.88,-81.8 l -4.1,0.04 c -21.7,0.18 -43.35,0.29 -64.87,0.29 -77.32,0 -135.66,-1.61 -189.15,-5.23 l -44.81,-3.04 -15.92,-42.01 c -25.66,-67.76 -47.75,-184.46 -52.28,-250.93 l -3.01,-44.2 38.65,-21.64 c 49.1,-27.48 105.69,-37.38 160.41,-46.96 24.96,-4.37 48.98,-8.57 70.55,-14.16 5.08,-30.16 0.49,-83.59 -2.87,-116.96 -11.52,-0.7 -22.86,-0.83 -32.42,-0.83 -16.82,0 -34.18,0.5 -52.54,1.03 -18.58,0.54 -37.77,1.1 -56.62,1.1 -36.47,0 -64.86,-2.19 -89.34,-6.9 l -41.34,-7.93 -12.37,-40.23 c -8.75,-28.441 -7.81,-60.609 -6.92,-91.71 0.46,-15.68 1.09,-37.161 -0.71,-45.309 l -16.37,-74.352 75.46,-10.089 c 56.49,-7.551 119.28,-9.09 180.02,-10.579 44.11,-1.101 89.39,-2.211 130.3,-5.691 0.64,-8.668 -0.14,-21.941 -2.21,-44.531 -1.78,-19.539 -3.81,-41.68 -3.95,-67.449 -0.12,-23.122 0.14,-46.008 0.39,-68.149 0.1,-8.891 0.2,-17.641 0.28,-26.242 -127.6,12.519 -377.81,54.391 -482.58,74.141 -6.11,17.39 -12.23,36.851 -14.38,45.761 -1.48,61.09 -14.3,724.639 -22.22,1137.199 m 1881.81,-1143.949 71.08,9.489 c 15.47,2.07 74.72,15.902 121.93,28.468 112.03,29.813 132.11,44.192 146.72,59.891 l 43.48,46.723 -42.52,47.597 c -23.16,25.93 -62.56,51.172 -111.66,81.473 -11.47,7.066 -22.28,13.738 -29.46,18.539 -24.06,16.078 -48.73,30.918 -72.56,45.269 -6.62,3.98 -13.22,7.94 -19.76,11.92 -14.03,13.6 -33.2,21.64 -54.22,21.64 -3.93,0 -7.97,-0.29 -11.97,-0.84 l -51.5,-7.15 -8.03,-51.37 c -9.05,-57.821 -0.78,-140.68 8.45,-220.602 0.85,-7.379 1.63,-14.027 2.25,-19.769 l 7.77,-71.278 M 4716.6,1511.47 c -26.07,0 -53.81,0.06 -81.27,0.12 -27.07,0.06 -53.88,0.12 -78.62,0.12 -33.3,0 -57.46,-0.11 -76.04,-0.35 l -66.22,-0.81 -2.24,-52.14 c -6.7,-16.65 -6.39,-32.15 -4.4,-43.46 l 0.94,-5.31 1.73,-5.11 c 7.16,-21.09 17,-54.34 27.43,-89.53 19.92,-67.31 40.49,-136.84 58.16,-178.09 10.04,-27.11 36.04,-46.21 66.37,-46.21 33.99,0 50.06,6.79 161.84,149.06 38.24,48.7 104.9,136.03 121.46,173.77 l 43.4,98.91 -108.01,-0.78 c -19.25,-0.15 -41.23,-0.19 -64.53,-0.19 m 690.04,-14.73 84.67,18.14 c 32.15,6.89 64.63,21.8 96.05,36.2 21.94,10.06 44.61,20.46 60.13,24.47 l 169.67,43.87 -153.2,85.1 c -165.85,92.14 -171.62,92.14 -190.66,92.14 l -85.33,0.25 16.62,-83.64 c 2.52,-14.7 2.25,-76.04 2.12,-105.51 -0.04,-8.82 -0.07,-17.1 -0.07,-24.43 v -86.59 m -99.59,527.45 c 167.51,-39.57 316.69,-95.67 409.02,-154.7 41.25,-26.39 59.03,-43.46 94.44,-77.46 21.74,-20.89 87.89,-84.43 100.13,-133.59 18.32,-73.54 -8.71,-129.58 -34.32,-170.18 -37.45,-59.39 -104.7,-109.91 -184.49,-138.61 l -91.71,-32.99 60.54,-76.37 c 26.82,-33.83 61.71,-47.38 87.19,-57.28 8.09,-3.14 15.72,-6.11 21.45,-9.09 65.35,-33.99 124.82,-80.15 182.34,-124.78 11.87,-9.21 24.04,-18.67 36.27,-28.01 l 39.16,-63.97 c 6.63,-30.351 17.16,-55.711 27.04,-76.039 12.33,-110.66 -31.94,-152.211 -97.87,-214.09 -1.32,-1.23 -2.63,-2.472 -3.95,-3.699 -21.77,-7.691 -39.63,-18.621 -54.67,-27.812 -6.62,-4.059 -12.89,-7.891 -18.54,-10.848 -4.57,-2.391 -10.25,-4.973 -16.29,-7.692 -15.39,-6.949 -34.66,-15.671 -52.83,-29.609 -29.96,-5.25 -53.16,-18.152 -69.76,-27.383 -6.06,-3.367 -12.33,-6.859 -15.88,-8.199 -7.6,-2.867 -16.89,-5.098 -27.63,-7.699 -22.41,-5.418 -49.33,-11.93 -76.89,-28.039 -41.11,-5.129 -78.67,-17.192 -115.92,-37.223 -56.09,-4.609 -98.43,-21.699 -136.21,-36.949 -0.16,-0.07 -0.33,-0.117 -0.48,-0.188 h -19.95 -27.16 l -13.98,-12.769 c -3.41,-0.524 -7.98,-1.063 -11.67,-1.492 -8.63,-1.02 -18.84,-2.211 -29.99,-4.469 -3.87,75.461 -4.56,194.617 -2.86,241.141 l 4.15,113.128 -103.05,-46.839 c -58.19,-26.461 -91.14,-32 -108.53,-32 -2.21,0 -4.28,0.078 -6.18,0.269 -6.49,2.879 -20.45,13.078 -29,19.301 -8.34,6.09 -17,12.398 -26.1,18.25 -83.48,53.59 -175.04,109.848 -251.23,154.34 l -45.15,26.699 -38.11,-36.16 c -1.55,-1.219 -7.02,-3.758 -11.02,-5.61 -18.27,-8.492 -56.28,-26.148 -70.27,-73.101 -13.72,-45.938 3.21,-99.18 14.41,-134.41 1.67,-5.239 3.4,-10.649 4.13,-13.399 3.69,-13.941 7.96,-28.968 12.5,-44.879 3.69,-12.961 7.57,-26.601 11.15,-39.761 -22.93,-6.719 -47.29,-12.801 -72.39,-19.071 -16.23,-4.058 -32.8,-8.199 -49.34,-12.609 -77.37,261.16 -160.71,520.84 -241.38,772.23 -20.66,64.39 -41.33,128.78 -61.91,193.25 l 29.69,18.7 c 34.1,21.48 67.98,45.99 100.76,69.71 107.57,77.82 218.8,158.3 370.05,158.3 21.57,0 43.89,-1.63 66.45,-4.85 133.11,-48.43 249.53,-218.36 213.73,-416.51 -4.86,-6.66 -10.88,-16.32 -14.84,-28.78 -4.67,-14.62 -5.16,-28.27 -5.49,-37.3 -0.04,-0.9 -0.08,-1.95 -0.12,-2.91 -10.47,-27.21 -28.08,-55.59 -45.13,-83.08 -14.87,-23.99 -30.26,-48.78 -41.9,-74.24 l -22.39,-48.98 41.6,-34.2 c 27.02,-22.219 55.22,-38.141 82.49,-53.531 13.83,-7.797 26.88,-15.168 38.86,-22.887 9.45,-6.082 22.55,-17.32 36.41,-29.231 34.18,-29.312 72.91,-62.562 119.12,-74.91 l 80.51,-21.519 7.31,83.008 c 4.9,55.82 20,375.88 34.59,685.42 7.61,161.81 15.95,338.73 21.09,438.25 m -2206.03,623.2 c -21.49,-10.56 -65.43,-35.46 -66.92,-91.47 l -2.04,-76.25 76.14,4.5 c 8.78,0.51 17.49,0.79 25.89,0.79 135.19,0 220.01,-66.9 266.95,-210.51 7.32,-22.44 9.8,-44.84 12.92,-73.21 1.01,-9.13 2.06,-18.57 3.3,-28.43 2.49,-19.78 6.54,-39.12 10.45,-57.82 2.49,-11.89 4.89,-23.32 6.8,-34.29 -37.95,13.83 -76.89,24.19 -117.44,31.31 -49.72,8.74 -107.27,12.81 -181.12,12.81 -51.88,0 -104.78,-2.01 -155.94,-3.94 -32.41,-1.23 -63.01,-2.4 -92.69,-3.05 l -83.55,-1.83 16.45,-81.93 c 4.65,-23.17 7.27,-49.73 10.03,-77.84 2.34,-23.76 4.75,-48.32 8.61,-72.3 l 5.76,-35.82 32.59,-15.94 c 86.69,-42.41 130.19,-133.19 132.97,-277.52 l 1.56,-81.04 79.94,13.34 c 15.99,2.67 34.09,4.01 53.8,4.01 32.6,0 65.99,-3.6 95.53,-7.55 35.45,-19.16 80.37,-62.05 99.97,-191.04 l 1.48,-9.74 c 7.53,-49.5 16.08,-105.6 16.87,-143.57 1.65,-79.22 -33.27,-104.47 -71.24,-119.97 -53.34,-21.758 -123.57,-27.828 -197.92,-34.258 -29.22,-2.531 -59.44,-5.152 -90.06,-8.812 l -82.96,-9.918 24.3,-79.93 c 8.29,-27.274 6.34,-53.09 3.87,-85.774 -2.61,-34.546 -5.56,-73.718 4.26,-118.878 7.14,-32.79 25.39,-60.329 41.48,-84.622 7.61,-11.476 19.63,-29.628 23.11,-39.418 -1.92,-2.359 -4.29,-5.109 -6.12,-7.238 -5.98,-6.933 -13.43,-15.57 -20.13,-25.91 l -16.04,-24.762 6.53,-28.769 c 5.4,-23.781 7.99,-52.492 10.73,-82.879 3.99,-44.242 8.1,-89.863 21.86,-130.981 0.89,-21.089 -2.65,-37.269 -10.18,-46.043 -8.61,-10.019 -23.74,-12.328 -27.39,-12.738 l -3.56,0.192 -7.47,-1.364 c -17.43,-3.168 -30.49,-10.226 -39.12,-14.906 -0.68,-0.371 -1.36,-0.742 -2.03,-1.121 -9.29,-1.883 -21.11,-2.473 -33.56,-3.09 -27.93,-1.391 -61.75,-3.082 -96.05,-19.531 -0.05,-0.012 -0.09,-0.012 -0.14,-0.012 -13.71,0 -27.78,4.262 -44.09,9.184 -20.55,6.207 -43.86,13.238 -71.29,13.238 -0.4,0 -0.81,0 -1.22,0 -7.64,4.34 -15.11,8.57 -22.16,12.809 v 5.281 l -2.09,8.359 -51.42,205.391 c -14.01,130.898 -37.21,253.469 -59.66,372.07 -16.03,84.602 -32.59,172.09 -45.38,260.79 l -5.6,38.85 -36.08,15.48 c -87.58,37.59 -114.01,68.91 -104.8,128.98 4.79,5.73 11.88,12.09 19.76,19.14 15.86,14.21 35.62,31.89 50.79,57.67 l 18.34,31.14 -14.76,32.98 c -15.1,33.73 -25.16,78.81 -34.88,122.42 -5.84,26.17 -11.87,53.24 -19.13,78.45 -20.28,70.44 -39.74,144.48 -58.57,216.08 -9.15,34.79 -18.19,69.19 -27.19,102.68 -1.92,7.13 -3.8,15.35 -5.79,24.04 -10.22,44.73 -22.95,100.4 -68.24,133.62 l -28.73,21.08 -33.96,-10.83 c -21.95,-7.01 -39.33,-19.78 -53.86,-34.21 0.09,0.5 0.19,0.99 0.29,1.49 10.06,50.06 33.45,92.61 58.22,137.66 7.13,12.94 14.5,26.34 21.45,39.83 l 38.22,74.05 -79.54,24.87 c -41.47,12.95 -87.06,17.7 -131.16,22.29 -3.05,0.31 -6.1,0.63 -9.15,0.95 63.22,33.37 144.56,52.85 229.44,70.65 l 69.17,14.5 -15.16,69.03 c -2.45,11.14 -6.08,21.04 -10.47,29.88 47.91,-1.47 90.82,-7.15 130.52,-17.24 6.6,-1.68 14.51,-4.93 22.87,-8.37 19.52,-8.02 43.81,-18.02 73.82,-18.02 4.75,0 9.54,0.26 14.18,0.77 22.27,2.41 57.73,16.57 210.83,84.15 39.85,17.6 89.44,39.48 99.22,42.83 46.86,14.78 173.42,43.15 187.14,45.58 28.57,5.01 62.52,8.22 99.64,9.47 m 1604.97,1090.68 102.63,25.68 c 7.55,1.89 17.34,4 27.69,6.24 61.29,13.23 130.74,28.24 165.88,74.08 l 31.03,40.49 -29.03,41.94 -2.37,3.42 c -33.32,48.15 -71.08,102.72 -114.53,133.72 l -78.56,56.04 -28.89,-92.07 c -3.75,-11.95 -9.61,-28.38 -15.82,-45.78 -16.43,-46.09 -35.06,-98.34 -41.52,-139.25 l -16.51,-104.51 m -700.15,502.66 c -7.83,-33.77 -14.02,-72.34 -10.2,-121.03 l 6.41,-81.68 79.67,19.08 c 43.4,10.39 86.8,15.88 125.49,15.88 39.63,0 73.34,-5.71 97.52,-16.51 30.37,-13.56 58.38,-32.7 85.62,-58.52 15.73,-14.91 36.13,-33.99 55.52,-52.13 16.01,-14.98 31.34,-29.31 42.68,-40.03 l 72.55,-68.58 39.75,91.58 c 12.51,28.83 23.66,59.14 34.44,88.44 32.87,89.34 63.91,173.72 124.65,202.13 5.92,2.78 20.2,7.74 24.71,8.65 10.35,1.69 20.45,2.56 29.98,2.56 41.97,0 74.2,-16.17 115.66,-44.09 60.91,-41 87.84,-71.3 133.99,-125.7 l 11.97,-14.06 c 67.67,-79.38 127.16,-149.17 130.98,-254.35 -72.45,-25.81 -150.51,-48.01 -226.42,-69.6 -81.75,-23.25 -166.27,-47.29 -245.79,-76.22 l -67.82,-24.66 26.73,-67.04 c 3.64,-9.15 6.93,-19.08 10.42,-29.58 15.06,-45.39 35.69,-107.56 104.28,-130.32 15.1,-5.02 31.21,-7.56 47.87,-7.56 55.3,0 104.34,28.06 127.91,41.53 l 0.61,0.35 c 66.68,38.15 124.39,96.79 170.77,143.91 1.3,1.31 2.59,2.62 3.86,3.92 14.88,-12.37 30.08,-26.76 44.28,-40.21 14.75,-13.97 28.69,-27.17 42.89,-39 l 43.59,-36.34 -112.57,-90.28 c -24.2,-19.41 -47.59,-40.49 -70.19,-60.88 -77.96,-70.27 -151.59,-136.65 -256.38,-136.65 -11.56,0 -23.59,0.79 -35.73,2.35 -181.9,23.32 -209.8,114.32 -230.16,180.76 -8.21,26.78 -15.29,49.91 -33.66,68.72 l -74.96,76.74 -40.06,-99.51 c -8.28,-20.58 -14.73,-45.7 -21.54,-72.29 -4.69,-18.31 -12.95,-50.48 -21.21,-72.38 -47.56,3.74 -96.94,4.96 -145.06,6.15 -23.58,0.59 -47.64,1.19 -71.29,2.08 61.7,197.37 114.76,490.78 38.98,616.44 l -14.21,23.57 -26.45,7.58 c -18.39,5.27 -38.98,7.94 -61.19,7.94 -23.15,0 -101.96,-3.66 -144.36,-50.73 l -13.77,-15.29 -3.31,-20.31 c -8.51,-52.32 -17.31,-108.94 -25.83,-163.69 -16.37,-105.27 -33.3,-214.12 -50.45,-307.69 -1.79,-9.76 -3.03,-19.14 -4.24,-28.2 -0.08,-0.71 -0.17,-1.42 -0.27,-2.14 -22.45,1.74 -45.27,2.38 -67.71,3 -31.39,0.87 -67.82,1.88 -94.91,6.75 26.15,264.88 35.45,497.64 45.27,743.19 1.63,40.6 3.25,81.44 4.98,122.71 31.55,6.66 67.1,11.64 95.69,15.65 6.56,0.93 12.83,1.81 18.75,2.66 9.81,1.42 22.42,1.51 35.78,1.62 16.95,0.13 36.14,0.27 55.59,3.23 12.75,1.94 24.72,4.65 36.33,7.27 1.18,0.27 2.38,0.54 3.57,0.81 m 1455.64,-958.53 141.37,14.01 c 61.45,6.09 154.43,6.56 229.13,6.93 11.01,0.06 21.65,0.11 31.8,0.18 l 75.22,0.52 -5.91,74.99 c -3.51,44.39 -10.98,93.73 -18.19,141.44 -7.56,49.95 -15.37,101.59 -18.28,145.43 l -0.21,67.93 h -70 c -38.29,0 -45.63,-7 -157.03,-149.83 -23.54,-30.18 -102.68,-132.41 -132.88,-180.97 L 5461.48,3282.2 M 6546,4317.2 v -70 c 117.51,0 221.7,-68.79 259.48,-101.73 -2.78,-65.95 -5.91,-129.09 -15.63,-185.07 -55.1,16.01 -129.03,37.02 -194.49,37.02 -34.64,0.01 -63.6,-5.69 -88.52,-17.42 l -14.85,-6.99 -10.19,-12.86 c -48.15,-60.69 -37.33,-113.59 -26.6,-139.72 12.05,-29.33 48.69,-118.53 356.61,-156.18 178.97,-58.62 278.29,-160.89 279.83,-288.43 0.24,-20.28 -23.55,-54.33 -42.69,-81.7 -2.96,-4.24 -5.91,-8.46 -8.81,-12.66 -95.97,-139.1 -438.79,-170.41 -551.31,-170.41 -2.46,0 -4.42,0.02 -5.88,0.07 -2.39,0.07 -4.82,0.11 -7.29,0.11 -16.31,0 -32.8,-1.61 -47.34,-3.04 -6.54,-0.64 -12.87,-1.26 -18.52,-1.67 -25.37,44.59 -52.13,125.96 -75.16,207.76 45.85,-2.75 88.7,-4.14 128.11,-4.14 186.59,0 297.59,30.53 329.91,90.73 9.27,17.29 11.85,36.72 7.85,54.68 -3.95,26.52 -19.71,65.19 -75.22,85.78 -25.68,9.53 -56.27,13.99 -91.67,19.16 -103.31,15.07 -244.79,35.72 -373.77,186.64 l -107.8,126.15 -15.12,-165.24 c -8.45,-92.33 -15.39,-188.75 -22.09,-281.99 -9.9,-137.82 -20.09,-279.73 -35.48,-412.47 -2.8,-0.04 -5.59,-0.06 -8.36,-0.06 -54.07,0 -94.59,6.47 -119.19,13.45 -2.08,7.94 -4.66,18.18 -5.35,23.53 l 15.33,110.1 -108.26,-37.87 c -31.78,-11.11 -64.12,-25 -95.39,-38.44 -78.55,-33.75 -159.78,-68.64 -248.42,-68.64 -17.16,0 -34.45,1.32 -51.24,3.92 -7.19,1.22 -32.07,8.68 -45.84,14.46 -81.83,34.4 -134.01,152.82 -121.37,275.45 l 14.36,139.39 4.66,-3.89 41.76,71.32 c 77.49,132.38 170.68,281.38 296.17,374.05 l 0.9,0.67 c 44.3,32.71 94.49,69.79 146.1,76.16 l 37.67,4.66 16.64,34.1 c 8.5,17.39 11.33,35.26 12.07,51.91 37.33,-3.76 74.77,-9.83 113.55,-16.12 63.35,-10.29 128.83,-20.92 196.12,-20.92 11.64,0 23.19,0.32 34.35,0.96 l 36.9,2.1 19.08,31.66 c 76.6,127.18 172.29,191.67 284.39,191.67 l 0.01,70 m -5151.81,-885.37 31.48,11.65 c 310.38,114.85 600.59,388.82 631.52,457.9 l 40.68,90.87 -99.27,7.54 c -314.01,23.84 -596.28,39.31 -862.96,47.31 l -124.21,3.72 61.18,-108.16 c 10.42,-18.4 30.3,-54.61 53.32,-96.53 207.57,-377.93 215.6,-382.74 239.47,-397.05 l 28.79,-17.25 M 681.672,4947.79 c -84.07,-77.16 -177.309,-169.61 -204.051,-269.71 l -23.836,-89.23 92.348,1.17 c 29.976,0.38 59.336,10.09 87.898,20.86 -23.929,-19.36 -47.961,-40.16 -71.547,-63.95 -2.55,-2.58 -6.101,-5.84 -9.863,-9.3 -23.945,-21.99 -64.023,-58.81 -63.016,-117.59 l 0.747,-43.49 39.332,-18.59 c 36.718,-17.36 74.863,-19.37 100.359,-19.37 16.777,0 33.469,0.98 49.613,1.93 15.699,0.93 30.524,1.8 44.953,1.8 5.309,0 10.18,-0.12 14.801,-0.36 1.153,-0.36 2.774,-0.91 4.059,-1.34 7.484,-2.53 18.801,-6.35 32.676,-7.99 3.488,-0.42 7.078,-0.63 10.664,-0.63 12,0 21.918,2.32 28.781,4.05 7.383,-3.19 20.855,-8.92 38.351,-8.92 6.039,0 12.079,0.68 17.899,2.03 46.992,10.82 76.156,48.04 97.453,75.23 6.078,7.75 15.262,19.47 19.152,22.51 14.125,10.38 54.855,23.01 70.195,27.78 16.25,5.04 29.02,12.8 37.61,18.11 6.59,0.7 14.1,1.09 21.85,1.09 10.11,0 20.55,-0.66 29.29,-1.82 0.69,-0.33 1.38,-0.67 2.09,-1 11.72,-5.54 31.31,-14.82 58.18,-14.82 1,0 2,0.02 3.01,0.04 14.65,-3.85 48.74,-27.91 65.37,-39.65 19.29,-13.62 34.53,-24.38 49.6,-30.93 l 31.62,-13.74 30.16,16.68 c 50.92,28.15 110.47,58.17 172.74,58.17 11.67,0 23.03,-0.99 34.31,-3.01 5.36,-4.96 12.16,-10.02 20.61,-14.07 12.17,-5.83 23.95,-8.05 33.34,-9.05 4.66,-3.82 10.01,-8.5 13.86,-11.88 5.05,-4.43 10.05,-8.8 14.89,-12.8 32.86,-27.24 53.89,-62.57 74.3,-99.41 l 17.99,-32.49 36.99,-3.32 c 31.58,-2.83 64.11,-7.65 98.55,-12.76 57.27,-8.49 116.49,-17.27 176.07,-17.27 12.96,0 25.67,0.43 37.79,1.27 l 69.26,4.8 -4.22,69.29 c -4.05,66.42 -15.92,128.61 -27.4,188.76 -10.31,54.07 -20.21,105.91 -23.83,157.53 39.15,9.39 77.68,19.21 115.34,28.8 69.26,17.66 140.53,35.82 213.62,50.63 6.77,-169.51 21.4,-328.35 37.11,-489.3 l 4.84,-49.64 48.49,-11.63 c 27.21,-6.54 55.5,-9.36 82.87,-12.09 13.81,-1.38 35.72,-3.57 54.26,-6.91 -23.99,-42.55 -57.78,-82.39 -90.77,-121.29 l -11.78,-13.92 c -3.72,-4.41 -9.02,-9.98 -14.64,-15.89 -21.65,-22.77 -46.19,-48.58 -53.06,-82.05 -7.13,-34.76 -0.22,-66.52 5.88,-94.55 3.93,-18.09 7.65,-35.17 7.09,-50.73 l -2.11,-59.27 58.12,-11.82 c 7.18,-1.46 14.5,-2.2 21.76,-2.2 36.8,0 63.19,18.28 80.65,30.37 4.69,3.25 11.12,7.7 13.65,8.7 33.18,13.02 65.16,19.63 95.05,19.63 191.69,0 303.05,-283.08 326.95,-420.18 22.9,-131.32 15.76,-282.25 -15.34,-361.6 -52.55,-18.35 -109.71,-35.25 -174.44,-44.45 8.14,293.86 -4.15,593.35 -180.55,607.26 -4.38,0.34 -8.91,0.52 -13.48,0.52 -65.42,0 -167.31,-39.3 -188.45,-113.08 -6.62,-23.04 -7.28,-49.68 43.3,-483.31 1.86,-16 3.61,-31.01 5.21,-44.73 -55.78,-14.42 -139.54,-32.31 -183.6,-37.27 -3.12,15.1 -5.1,36.8 -6.34,50.26 -1.25,13.67 -2.43,26.57 -4.35,38.68 -10.24,64.82 -22.96,137.54 -36.42,214.52 -24.91,142.55 -50.69,289.95 -63.61,403.29 l -6.88,60.4 -60.78,1.64 c -1.16,0.03 -2.34,0.05 -3.48,0.05 -57.59,0 -92.86,-36.74 -113.94,-58.7 -5.43,-5.65 -10.55,-10.99 -14.25,-13.94 -19.71,-15.76 -361.81,-260.75 -511.02,-341.78 -5.77,-3.13 -12.87,-6.46 -20.39,-9.98 -29.33,-13.74 -65.83,-30.84 -92.91,-66.58 l -22.3,-29.46 11.73,-35.04 c 30.31,-90.48 134.29,-465.07 156.29,-553.41 3.41,-13.68 7.54,-26.93 11.55,-39.75 2.97,-9.53 7.02,-22.5 9.25,-31.79 -6.92,-6.14 -21.07,-16.85 -48.04,-31.26 -32.59,-17.41 -145.59,-74.22 -231.58,-74.22 -27.57,0 -43.23,6.08 -52.24,12.12 -13.86,88.69 -34.82,185.84 -56,258.67 -6.13,21.1 -12.1,42.14 -18.05,63.12 -11.09,39.1 -22.56,79.53 -34.89,119.46 l -6.9,22.35 c -74.55,241.61 -144.97,469.82 -250.922,680.84 l -26.875,53.53 -57.039,-18.27 c -4.266,-1.37 -8.645,-2.03 -13.399,-2.03 -7.945,0 -16.597,1.82 -26.476,5.58 -28.395,10.78 -28.395,10.78 -50.367,30.09 -21.035,18.5 -33.602,38.18 -33.633,52.63 -0.008,6.39 4.84,14.49 15.91,31.44 8.164,12.5 17.414,26.68 25.492,44.19 l 13.789,29.9 -14.25,29.68 c -16.707,34.83 -86.367,157.18 -100.906,182.66 -24.355,55.43 -49.879,97.57 -79.551,131.23 -23.383,50.28 -72.574,113.25 -101.316,142.88 l -70.172,72.33 -43.285,-91.01 c -8.172,-17.18 -11.61,-36.67 -11.969,-57.82 l -37.359,28.26 -41.996,-30.59 c -6.453,-4.69 -11.864,-9.92 -16.387,-15.56 -6.582,21.62 -11.063,47.03 -11.512,76.39 l -1.351,89.23 -86.332,-22.57 c -18.258,-4.77 -34.672,-11.27 -49.594,-18.82 8.324,12.08 17.473,24.58 27.504,37.87 5.781,7.66 13.121,16.25 20.886,25.35 25.047,29.33 48.7,57.02 54.446,91.14 3.609,21.4 -0.899,44.63 -14.469,108.67 -8.875,41.89 -25.402,119.88 -23.113,144.88 0.121,1.35 0.261,3.48 0.418,6.3 1.691,31.33 8.992,68.04 29.691,98.96 0.758,-19.68 3.465,-40.24 10.293,-62.27 l 44,-141.88 81.41,124.25 c 56.008,85.47 105.008,144.16 158.821,190.25 51.234,42.68 107.484,60.78 158.195,69.03"
         style="fill:none;stroke:#ed1c24;stroke-width:20;stroke-linecap:butt;stroke-linejoin:miter;stroke-miterlimit:10;stroke-dasharray:none;stroke-opacity:1"
         id="path62" /><path
         d="m 1404.47,3426.76 31.48,11.65 c 310.38,114.85 600.58,388.82 631.52,457.91 l 40.67,90.86 -99.27,7.54 c -314,23.84 -596.28,39.32 -862.96,47.31 l -124.21,3.72 61.19,-108.16 c 10.41,-18.4 30.29,-54.6 53.32,-96.52 207.56,-377.94 215.6,-382.75 239.46,-397.05 l 28.8,-17.26 M 691.941,4942.72 c -84.066,-77.16 -177.3,-169.61 -204.046,-269.71 l -23.836,-89.23 92.347,1.17 c 29.977,0.38 59.336,10.1 87.903,20.86 -23.934,-19.36 -47.965,-40.16 -71.551,-63.95 -2.555,-2.58 -6.102,-5.84 -9.863,-9.29 -23.946,-22 -64.024,-58.81 -63.016,-117.6 l 0.746,-43.49 39.332,-18.59 c 36.719,-17.36 74.863,-19.37 100.359,-19.37 16.778,0 33.469,0.98 49.618,1.94 15.695,0.92 30.519,1.79 44.949,1.79 5.308,0 10.18,-0.11 14.801,-0.35 1.152,-0.37 2.773,-0.92 4.054,-1.35 7.489,-2.53 18.805,-6.35 32.68,-7.99 3.488,-0.42 7.078,-0.62 10.66,-0.62 12.004,0 21.922,2.31 28.785,4.04 7.383,-3.19 20.856,-8.92 38.352,-8.92 6.039,0 12.078,0.68 17.898,2.03 46.992,10.82 76.157,48.05 97.453,75.23 6.079,7.76 15.262,19.48 19.157,22.51 14.127,10.38 54.847,23.02 70.187,27.78 16.26,5.04 29.02,12.8 37.61,18.11 6.6,0.71 14.1,1.08 21.85,1.08 10.11,0 20.56,-0.65 29.29,-1.81 0.69,-0.33 1.39,-0.67 2.1,-1 11.71,-5.54 31.3,-14.81 58.17,-14.81 1,0 2.01,0.01 3.02,0.03 14.65,-3.85 48.73,-27.91 65.36,-39.64 19.29,-13.63 34.53,-24.39 49.61,-30.94 l 31.61,-13.74 30.17,16.68 c 50.92,28.14 110.46,58.18 172.73,58.18 11.67,0 23.04,-1 34.32,-3.02 5.35,-4.95 12.15,-10.02 20.61,-14.07 12.16,-5.82 23.94,-8.05 33.34,-9.05 4.65,-3.82 10,-8.5 13.85,-11.88 5.05,-4.43 10.06,-8.8 14.89,-12.8 32.86,-27.23 53.9,-62.56 91.48,-83.52 l 17.99,-32.49 23.06,1.74 c 52.44,-4.7 81.89,-5.34 113.33,-10 57.27,-8.49 672.64,-83.94 700,-86.67 13.81,-1.38 47.64,-19.46 66.18,-22.8 -6.18,-63.87 -546.05,-594.44 -549.51,-597.2 -19.71,-15.75 -392.92,-257.21 -542.13,-338.23 -5.76,-3.14 -12.87,-6.46 -20.39,-10 -29.33,-13.73 -65.83,-30.83 -92.9,-66.58 l -22.31,-29.45 11.73,-35.04 c 30.32,-90.48 134.29,-465.07 156.29,-553.41 3.41,-13.68 7.55,-26.93 11.55,-39.74 2.98,-9.53 7.02,-22.5 9.25,-31.8 -6.91,-6.13 -21.07,-16.85 -48.04,-31.26 -32.59,-17.41 -145.58,-74.22 -231.57,-74.22 -27.58,0 -43.23,6.08 -52.25,12.12 -13.85,88.69 -34.82,185.84 -55.99,258.67 -6.14,21.11 -12.11,42.14 -18.05,63.12 -11.1,39.1 -22.57,79.53 -34.9,119.46 l -6.9,22.35 c -74.55,241.61 -144.97,469.83 -250.919,680.84 l -26.875,53.53 -57.043,-18.27 c -4.261,-1.37 -8.64,-2.03 -13.394,-2.03 -7.945,0 -16.598,1.82 -26.477,5.58 -28.394,10.78 -28.394,10.78 -50.367,30.09 -21.035,18.5 -33.601,38.18 -33.633,52.63 -0.007,6.39 4.84,14.49 15.911,31.44 8.164,12.5 17.417,26.68 25.492,44.19 l 13.789,29.9 -14.246,29.69 c -16.711,34.83 -86.368,157.17 -100.91,182.65 -24.356,55.43 -49.879,97.57 -79.551,131.23 -23.383,50.29 -72.574,113.25 -101.321,142.88 l -70.168,72.33 -43.289,-91.01 c -8.168,-17.18 -11.605,-36.67 -11.964,-57.81 l -37.36,28.25 -41.996,-30.58 c -6.449,-4.7 -11.859,-9.93 -16.387,-15.57 -6.582,21.63 -11.058,47.04 -11.507,76.4 l -1.356,89.21 -86.332,-22.55 c -18.258,-4.77 -34.672,-11.28 -49.594,-18.83 8.325,12.08 17.477,24.58 27.504,37.87 5.781,7.66 13.121,16.25 20.891,25.35 25.043,29.33 48.695,57.03 54.441,91.14 3.61,21.4 -0.898,44.63 -14.469,108.67 -8.875,41.89 -25.406,119.88 -23.113,144.88 0.121,1.35 0.262,3.47 0.418,6.3 1.692,31.33 8.988,68.05 29.695,98.96 0.754,-19.68 3.461,-40.24 10.29,-62.27 l 44,-141.88 81.414,124.25 c 56.004,85.47 105.004,144.17 158.816,190.25 51.234,42.69 107.484,60.79 158.191,69.03"
         style="fill:none;stroke:#721d25;stroke-width:20;stroke-linecap:butt;stroke-linejoin:round;stroke-miterlimit:10;stroke-dasharray:none;stroke-opacity:1"
         id="path64" /></g></g></svg>
